<svg id="visual" viewBox="0 0 900 600" width="900" height="600" xmlns="http://www.w3.org/2000/svg" xmlns:xlink="http://www.w3.org/1999/xlink" version="1.1"><rect x="0" y="0" width="900" height="600" fill="#2d314d"></rect><g fill="#2bb7da"><circle r="66" cx="744" cy="585"></circle><circle r="17" cx="592" cy="285"></circle><circle r="20" cx="735" cy="380"></circle><circle r="25" cx="359" cy="42"></circle><circle r="57" cx="121" cy="487"></circle><circle r="51" cx="872" cy="81"></circle><circle r="17" cx="588" cy="3"></circle><circle r="61" cx="182" cy="281"></circle><circle r="51" cx="346" cy="293"></circle><circle r="17" cx="32" cy="25"></circle><circle r="41" cx="819" cy="269"></circle><circle r="57" cx="503" cy="144"></circle><circle r="21" cx="151" cy="150"></circle><circle r="57" cx="364" cy="548"></circle><circle r="40" cx="866" cy="470"></circle><circle r="49" cx="528" cy="457"></circle><circle r="33" cx="7" cy="240"></circle><circle r="45" cx="734" cy="88"></circle></g></svg>